<?xml version="1.0" encoding="iso-8859-1"?>
<!-- Generator: Adobe Illustrator 21.1.0, SVG Export Plug-In . SVG Version: 6.00 Build 0)  -->
<svg version="1.1" id="Layer_1" xmlns="http://www.w3.org/2000/svg" xmlns:xlink="http://www.w3.org/1999/xlink" x="0px" y="0px"
	 viewBox="0 0 24 24" enable-background="new 0 0 24 24" xml:space="preserve">
<g>
	<path fill="#FCD3C0" d="M24,11.5c0-1.378418-1.121582-2.5-2.5-2.5h-6.2954102C15.5097656,8.0712891,16,6.3681641,16,5
		c0-2.1694336-1.8427734-4-3-4c-1.0385742,0-1.78125,0.5844727-1.8125038,0.609375L11,1.7597656v3.6303711l-2.9165039,6.3193359
		L7,12.7929688v8.4140625l0.1464844,0.1464844C7.8178711,22.0249023,9.4580078,23,10.5,23h9.25
		c1.2407227,0,2.25-1.0092773,2.25-2.25c0-0.3530273-0.0810547-0.6928711-0.2348633-0.9995117
		C22.503418,19.378418,23,18.6171875,23,17.75c0-0.3530273-0.0810547-0.6928711-0.2348633-0.9995117
		C23.503418,16.378418,24,15.6171875,24,14.75c0-0.6000977-0.2387695-1.1611328-0.6499023-1.574707
		C23.7651367,12.7226563,24,12.1313477,24,11.5z"/>
	<path opacity="0.2" fill="#FFFFFF" d="M11.1029663,1.859375C11.1348267,1.8344727,11.8920288,1.25,12.9509888,1.25
		C14.1052856,1.25,15.9213867,3.0046997,16,5.1119385C16.0006714,5.0751343,16,5.036377,16,5c0-2.1694336-1.8427734-4-3-4
		c-1.0385742,0-1.78125,0.5844727-1.8125038,0.609375L11,1.7597656v0.180603L11.1029663,1.859375z"/>
	<path opacity="0.2" fill="#FFFFFF" d="M15.125,9.25h6.4926758c0.8427124,0,1.5984879,0.40802,2.0628433,1.0281372
		C23.2508316,9.5192871,22.4324951,9,21.5,9h-6.2938232C15.1785889,9.0856323,15.1504517,9.1740723,15.125,9.25z"/>
	<path opacity="0.1" fill="#010101" d="M19.75,22.75H10.5c-1.0419922,0-2.6821289-0.9750977-3.3535156-1.6464844L7,20.9570313v0.25
		l0.1464844,0.1464844C7.8178711,22.0249023,9.4580078,23,10.5,23h9.25c1.2407227,0,2.25-1.0092773,2.25-2.25
		c0-0.0397949-0.0008926-0.0772095-0.0029678-0.1166382C21.9264145,21.8110352,20.9450684,22.75,19.75,22.75z"/>
	<path opacity="0.1" fill="#010101" d="M22.6847725,16.5808525c0.0318604,0.0635376,0.0547905,0.1034126,0.0803642,0.1696358
		C23.544117,16.3500004,24,15.5859985,24,14.75c0-0.0501099-0.0015373-0.0979004-0.0048332-0.1473999
		C23.9565926,15.4254761,23.3927803,16.224041,22.6847725,16.5808525z"/>
	<path opacity="0.1" fill="#010101" d="M23.2288723,13.0465193c0.0368042,0.0370483,0.0872288,0.089467,0.1212254,0.1287737
		C23.7843132,12.7176466,24,12.0751343,24,11.5c0-0.0409546-0.0008869-0.0791626-0.00284-0.1196899
		C23.9668255,11.9616699,23.6147976,12.6256208,23.2288723,13.0465193z"/>
	<path opacity="0.1" fill="#010101" d="M21.6955585,19.5700665c0.0318604,0.0635376,0.0440044,0.1141987,0.0695782,0.1804218
		C22.5372543,19.34902,23,18.5859985,23,17.75c0-0.0471191-0.0032349-0.1012573-0.0061035-0.1478271
		C22.9519043,18.4210205,22.4008198,19.2146587,21.6955585,19.5700665z"/>
	<path fill="#2D98D4" d="M0,11v12h6c1.1045694,0,2-0.8954296,2-2v-8c0-1.1045694-0.8954306-2-2-2H0z"/>
	<path opacity="0.1" fill="#010101" d="M6,22.75H0V23h6c1.1045532,0,2-0.8954468,2-2v-0.25C8,21.8545532,7.1045532,22.75,6,22.75z"
		/>
	<path opacity="0.2" fill="#FFFFFF" d="M6,11H0v0.25h6c1.1045532,0,2,0.8953857,2,2V13C8,11.8953857,7.1045532,11,6,11z"/>
	<linearGradient id="SVGID_1_" gradientUnits="userSpaceOnUse" x1="0.8059514" y1="9.2716322" x2="22.8020515" y2="19.5285816">
		<stop  offset="0" style="stop-color:#FFFFFF;stop-opacity:0.2"/>
		<stop  offset="1" style="stop-color:#FFFFFF;stop-opacity:0"/>
	</linearGradient>
	<path fill="url(#SVGID_1_)" d="M24,11.5c0-1.378418-1.121582-2.5-2.5-2.5h-6.2954102C15.5097656,8.0712891,16,6.3681641,16,5
		c0-2.1694336-1.8427734-4-3-4c-1.0385742,0-1.78125,0.5844727-1.8125114,0.609375L11,1.7597656v3.6303711l-2.9165039,6.3193359
		l-0.3361206,0.3361206C7.4077148,11.425415,6.756958,11,6,11H0v12h6c0.7873535,0,1.461792-0.4591064,1.7880249-1.1204834
		C8.5825195,22.4419556,9.7116699,23,10.5,23h9.25c1.2407227,0,2.25-1.0092773,2.25-2.25
		c0-0.3530273-0.0810547-0.6928711-0.2348633-0.9995117C22.503418,19.378418,23,18.6171875,23,17.75
		c0-0.3530273-0.0810547-0.6928711-0.2348633-0.9995117C23.503418,16.378418,24,15.6171875,24,14.75
		c0-0.6000977-0.2387695-1.1611328-0.6499023-1.574707C23.7651367,12.7226563,24,12.1313477,24,11.5z"/>
</g>
<g>
</g>
<g>
</g>
<g>
</g>
<g>
</g>
<g>
</g>
<g>
</g>
<g>
</g>
<g>
</g>
<g>
</g>
<g>
</g>
<g>
</g>
<g>
</g>
<g>
</g>
<g>
</g>
<g>
</g>
</svg>
