<?xml version="1.0" encoding="utf-8"?>
<!-- Generator: Adobe Illustrator 24.2.2, SVG Export Plug-In . SVG Version: 6.00 Build 0)  -->
<svg version="1.1" id="Layer_1" xmlns="http://www.w3.org/2000/svg" xmlns:xlink="http://www.w3.org/1999/xlink" x="0px" y="0px"
	 viewBox="0 0 120 120" style="enable-background:new 0 0 120 120;" xml:space="preserve">
<style type="text/css">
	.st0{fill:#232323;}
	.st1{fill:#3A3A3A;}
	.st2{fill:#FFC91D;}
	.st3{fill:#CC9B21;}
	.st4{fill:#EDB61D;}
	.st5{fill:#FFF1E1;}
	.st6{fill:#54AAFF;}
	.st7{fill:#EDDFD1;}
	.st8{fill:#489BE0;}
</style>
<g>
	<g>
		<path class="st0" d="M85.6,68.1V52.3H34.4v15.8c0,2.7,12.8,9.2,25.6,9.2S85.6,70.8,85.6,68.1z"/>
		<path class="st1" d="M106.6,45.3L60.7,60.5c-0.5,0.2-1,0.2-1.4,0L13.4,45.3c-2.1-0.7-2.1-3.7,0-4.3l45.8-14.4
			c0.4-0.1,0.9-0.1,1.4,0L106.4,41C108.6,41.7,108.7,44.6,106.6,45.3z"/>
		<g>
			<path class="st2" d="M24.4,61.9c-0.7,0-1.3-0.6-1.3-1.3V49c0-0.6,0.5-1.2,1.1-1.3l35.6-5.4c0.7-0.1,1.3,0.4,1.4,1.1
				c0.1,0.7-0.4,1.3-1.1,1.4L25.6,50v10.5C25.7,61.3,25.1,61.9,24.4,61.9z"/>
		</g>
		<path class="st2" d="M22.2,71.4h4.4c0.9,0,1.6-0.9,1.3-1.7l-2-7h-3l-2,7C20.7,70.5,21.3,71.4,22.2,71.4z"/>
		<ellipse class="st3" cx="60" cy="44.2" rx="4.4" ry="2.4"/>
		<circle class="st4" cx="24.5" cy="61.8" r="3.1"/>
		<ellipse class="st4" cx="60" cy="43.6" rx="4.4" ry="2.4"/>
	</g>
	<path class="st5" d="M105,63.1c1.7,4.8,0.6,9.5-2.3,10.6L48.6,92.5c-3,1-6.7-2-8.4-6.8c-1.7-4.8-0.6-9.5,2.3-10.6l54.1-18.9
		C99.6,55.2,103.3,58.3,105,63.1z"/>
	<path class="st6" d="M84.9,70.1c1.7,4.8,0.6,9.5-2.3,10.6l-10.3,3.6c3-1,4-5.8,2.3-10.6c-1.7-4.8-5.4-7.9-8.4-6.8l10.3-3.6
		C79.5,62.2,83.3,65.3,84.9,70.1z"/>
	<ellipse transform="matrix(0.9444 -0.3289 0.3289 0.9444 -25.0405 19.6373)" class="st7" cx="45.5" cy="83.8" rx="5.7" ry="9.2"/>
	<polygon class="st8" points="84.8,89.6 77.8,87.8 73.5,93.5 70.5,84.9 81.8,81 	"/>
</g>
</svg>
