<?xml version="1.0" encoding="UTF-8" standalone="no"?> <svg xmlns="http://www.w3.org/2000/svg" viewBox="0 0 128 128"><defs><style>.cls-1{fill:#ccc;}.cls-2{fill:#e6e6e6;}.cls-3{fill:#b3b3b3;}.cls-4{fill:#d2423f;}.cls-5{fill:#dd6966;}.cls-6{fill:#ba3b38;}.cls-7{fill:#2175aa;}.cls-8{fill:#1d6694;}.cls-9{fill:#f2f2f2;}.cls-10{fill:#f7f7f7;}.cls-11{fill:#4d91bb;}</style></defs><title>18 School Building</title><g id="_18_School_Building" data-name="18 School Building"><path class="cls-1" d="M40,104H20a4,4,0,0,1-4-4V71.71l24-16Zm48,0h20a4,4,0,0,0,4-4V71.71l-24-16Z"/><path class="cls-2" d="M17.1,100V71.71L40,56.44v-.74l-24,16V100a4,4,0,0,0,4,4h1.1A4,4,0,0,1,17.1,100Z"/><path class="cls-3" d="M93.72,64.53c18,12,17,11.58,18.28,11.58v-4.4l-24-16V104h20a4,4,0,0,0,4-4V98.14a4,4,0,0,1-4,4H94.46A3.46,3.46,0,0,1,91,98.69V66A1.75,1.75,0,0,1,93.72,64.53Z"/><path class="cls-3" d="M16,71.71v4.4a3,3,0,0,0,1.66-.5L34.28,64.53A1.75,1.75,0,0,1,37,66V97.65a4.49,4.49,0,0,1-4.49,4.49H20a4,4,0,0,1-4-4V100a4,4,0,0,0,4,4H40V55.71Z"/><path class="cls-4" d="M110.34,74.21,64,43.31,17.66,74.21c-3.3,2.2-6.63-2.79-3.33-5l48-32a3,3,0,0,1,3.33,0l48,32C116.94,71.4,113.65,76.41,110.34,74.21Z"/><path class="cls-5" d="M62.24,38a3,3,0,0,1,3.33,0c51.67,34.45,49.29,32.19,49.33,34.44a3,3,0,0,0-1.23-3.23l-48-32a3,3,0,0,0-3.33,0C10.3,71.9,13,69.43,13,71.76,13.42,70.14,10.54,72.47,62.24,38Z"/><path class="cls-6" d="M114.94,71.15a3,3,0,0,1-4.61,1.92C90,59.5,91,61.76,91,54.1l-3-2v6.08l-24-16-24,16V52.1l-3,2c0,2.61.47,5.77-2.67,7.86L17.66,73.07a3,3,0,0,1-4.61-1.92,3,3,0,0,0,4.61,3.06L37,61.31l27-18,46.34,30.89a3,3,0,0,0,4.61-3.06Z"/><path class="cls-7" d="M31,89.1H25a2,2,0,0,1-2-2v-6a2,2,0,0,1,2-2h6a2,2,0,0,1,2,2v6A2,2,0,0,1,31,89.1Zm74-2v-6a2,2,0,0,0-2-2H97a2,2,0,0,0-2,2v6a2,2,0,0,0,2,2h6A2,2,0,0,0,105,87.1Z"/><path class="cls-8" d="M23.21,87.31v-6a2,2,0,0,1,2-2h6a2,2,0,0,1,1.3.49A2,2,0,0,0,31,79.1H25a2,2,0,0,0-2,2v6a2,2,0,0,0,.7,1.51A2,2,0,0,1,23.21,87.31Z"/><path class="cls-8" d="M95.21,81.31a2,2,0,0,1,2-2h6a2,2,0,0,1,1.3.49,2,2,0,0,0-1.51-.7H97a2,2,0,0,0-2,2c0,5.9-.3,6.65.7,7.51C94.93,87.72,95.21,87,95.21,81.31Z"/><polygon class="cls-9" points="88 40 64 24 40 40 40 104 88 104 88 40"/><polygon class="cls-10" points="65 24.67 64 24 40 40 40 104 42 104 42 40 65 24.67"/><path class="cls-2" d="M64,24,40,40v5a3,3,0,0,0,1.66-.5l19-12.67a6,6,0,0,1,6.66,0l16,10.67a6,6,0,0,1,2.67,5V98a4.29,4.29,0,0,1-4.12,4.29L40,104H88V40Z"/><path class="cls-4" d="M88,43c-1.28,0,.26.77-24-15.4L41.66,42.5c-3.3,2.2-6.63-2.79-3.33-5l24-16a3,3,0,0,1,3.33,0l24,16A3,3,0,0,1,88,43Z"/><path class="cls-6" d="M88,41.76c-1.28,0,.26.77-24-15.4L41.66,41.25a3,3,0,0,1-4.59-1.88,3,3,0,0,0,4.59,3.12L64,27.61C88.33,43.82,86.75,43,88,43a3,3,0,0,0,2.93-3.63A3,3,0,0,1,88,41.76Z"/><path class="cls-5" d="M62.34,22.5a3,3,0,0,1,3.33,0c25.83,17.22,25,16.2,25.29,18a3,3,0,0,0-1.29-3l-24-16a3,3,0,0,0-3.33,0l-24,16a3,3,0,0,0-1.29,3C37.34,38.72,36.45,39.76,62.34,22.5Z"/><path class="cls-11" d="M58,85.92H70a2,2,0,0,1,2,2V104a0,0,0,0,1,0,0H56a0,0,0,0,1,0,0V87.92A2,2,0,0,1,58,85.92Z"/><polygon class="cls-7" points="56 103.35 56 104 72 104 72 102.71 56 103.35"/><path class="cls-7" d="M56.6,88.53a2,2,0,0,1,2-2h12a2,2,0,0,1,1.08.32A2,2,0,0,0,70,85.92H58a2,2,0,0,0-2,2V104h.6Z"/><path class="cls-11" d="M60,61.11H52a2,2,0,0,1-2-2v-8a2,2,0,0,1,2-2h8a2,2,0,0,1,2,2v8A2,2,0,0,1,60,61.11Zm2,14v-8a2,2,0,0,0-2-2H52a2,2,0,0,0-2,2v8a2,2,0,0,0,2,2h8A2,2,0,0,0,62,75.11Zm16-15.4v-8a2,2,0,0,0-2-2H68a2,2,0,0,0-2,2v8a2,2,0,0,0,2,2h8A2,2,0,0,0,78,59.71Zm0,15.4v-8a2,2,0,0,0-2-2H68a2,2,0,0,0-2,2v8a2,2,0,0,0,2,2h8A2,2,0,0,0,78,75.11Z"/><path class="cls-7" d="M50.78,60.69a2,2,0,0,1-.42-1.22v-8a2,2,0,0,1,2-2h8a2,2,0,0,1,1.22.42A2,2,0,0,0,60,49.11H52a2,2,0,0,0-2,2v8A2,2,0,0,0,50.78,60.69Z"/><path class="cls-7" d="M66.78,61.29a2,2,0,0,1-.42-1.22v-8a2,2,0,0,1,2-2h8a2,2,0,0,1,1.22.42A2,2,0,0,0,76,49.71H68a2,2,0,0,0-2,2v8A2,2,0,0,0,66.78,61.29Z"/><path class="cls-7" d="M50.36,75.47v-8a2,2,0,0,1,2-2h8a2,2,0,0,1,1.22.42A2,2,0,0,0,60,65.11H52a2,2,0,0,0-2,2v8a2,2,0,0,0,.78,1.58A2,2,0,0,1,50.36,75.47Z"/><path class="cls-7" d="M66.36,75.47v-8a2,2,0,0,1,2-2h8a2,2,0,0,1,1.22.42A2,2,0,0,0,76,65.11H68a2,2,0,0,0-2,2v8a2,2,0,0,0,.78,1.58A2,2,0,0,1,66.36,75.47Z"/></g></svg>